# xmcd
#
# Track frame offsets: 
#        150
#        20357
#        39525
#        56495
#        73805
#        98165
#        119942
#        142330
#        162987
#        176450
#
# Disc length: 2629 seconds
#
# Revision: 2
# Processed by: cddbd v1.4PL0 Copyright (c) Steve Scherf et al.
# Submitted via: ExactAudioCopy v0.95a3
#
DISCID=940a430a
DTITLE=Liesbeth List - List
DYEAR=1994
DGENRE=Vocal
TTITLE0=Net als een kind
TTITLE1=Zonder woorden
TTITLE2=vrijheid
TTITLE3=Als later
TTITLE4=De verzoening
TTITLE5=Ik moet nog zoveel doen
TTITLE6=Brief aan Mia
TTITLE7=Vlinders ind e nacht
TTITLE8=Te hooi en te gras
TTITLE9=De aanhouder wint
EXTD=
EXTT0=
EXTT1=
EXTT2=
EXTT3=
EXTT4=
EXTT5=
EXTT6=
EXTT7=
EXTT8=
EXTT9=
PLAYORDER=
